<svg id="logosandtypes_com" data-name="logosandtypes com" xmlns="http://www.w3.org/2000/svg" viewBox="0 0 150 150"><defs><style>.cls-1{fill:none;}.cls-2{fill:#f38027;}</style></defs><path class="cls-1" d="M0,0H150V150H0Z" transform="translate(0 0)"/><path class="cls-2" d="M76.59,134.56l-.26-.21a327.84,327.84,0,0,1-20.1-28.2c-2.82-4.72-4.65-8.4-4.3-9.35.92-2.48,17.3-3.83,22.34-1.59,1.53.68,1.49,1.58,1.49,2.11,0,2.27-.11,8.34-.11,8.34a2.28,2.28,0,1,0,4.55,0l0-15.14h0c0-1.32-1.43-1.64-1.7-1.7-2.63,0-8,0-13.72,0-12.66,0-15.49.52-17.64-.88-4.66-3.05-12.28-23.59-12.46-35.15-.25-16.3,9.41-30.42,23-37.41A41.93,41.93,0,0,1,118.16,48a.13.13,0,0,0,0,.06c.43,5.05-27.43,6.13-32.94,4.66a1.54,1.54,0,0,1-1.06-1.47c0-3.84,0-14.65,0-14.65a2.29,2.29,0,0,0-2.28-2.28h0a2.28,2.28,0,0,0-2.27,2.28l0,19.93A1.71,1.71,0,0,0,81,58.2H98.29c9.23,0,13.1,1.07,15.68,3,1.72,1.31,2.38,3.81,1.8,7.07C110.6,97.22,77.82,133.07,76.59,134.56Z" transform="translate(0 0)"/></svg>